<?xml version="1.0" standalone="no"?>
<!DOCTYPE svg PUBLIC "-//W3C//DTD SVG 1.1//EN" "http://www.w3.org/Graphics/SVG/1.1/DTD/svg11.dtd" >
<svg xmlns="http://www.w3.org/2000/svg">
<metadata>Generated by IcoMoon</metadata>
<defs>
<font id="icomoon" horiz-adv-x="1024">
<font-face units-per-em="1024" ascent="960" descent="-64" />
<missing-glyph horiz-adv-x="1024" />
<glyph unicode="&#x20;" horiz-adv-x="512" d="" />
<glyph unicode="&#xe900;" glyph-name="login_img_phone" horiz-adv-x="674" d="M337.28 135.467c-28.748 0-52.053-23.305-52.053-52.053s23.305-52.053 52.053-52.053c28.748 0 52.053 23.305 52.053 52.053v0c0 28.748-23.305 52.053-52.053 52.053v0zM595.413 960h-515.627c-0.19 0.002-0.415 0.003-0.64 0.003-43.711 0-79.147-35.435-79.147-79.147 0-0.001 0-0.002 0-0.003v0-865.707c0-0.001 0-0.002 0-0.003 0-43.711 35.435-79.147 79.147-79.147 0.225 0 0.45 0.001 0.674 0.003h516.233c43.711 0 79.147 35.435 79.147 79.147v0 866.347c-0.361 43.437-35.657 78.509-79.144 78.509-0.226 0-0.452-0.001-0.677-0.003h0.034zM79.787 907.52h516.267c14.561-0.12 26.334-11.892 26.453-26.442v-649.184h-569.387v649.6c0 0.002 0 0.005 0 0.008 0 14.374 11.653 26.027 26.027 26.027 0.225 0 0.449-0.003 0.673-0.009l-0.033 0.001zM596.053-11.52h-516.267c-14.561 0.12-26.334 11.892-26.453 26.442v160.651h568.107v-160.64c0.001-0.064 0.001-0.139 0.001-0.214 0-14.417-11.627-26.119-26.016-26.239h-0.011z" />
<glyph unicode="&#xe901;" glyph-name="login_img_sec" d="M960 398.933c-21.333-121.6-87.467-219.733-187.733-292.267-68.267-51.2-138.667-102.4-209.067-153.6-32-23.467-64-23.467-91.733-2.133-78.933 57.6-157.867 113.067-234.667 174.933-98.133 76.8-157.867 181.333-168.533 305.067-8.533 115.2-6.4 232.533-6.4 347.733 0 25.6 14.933 44.8 40.533 53.333 132.267 42.667 264.533 85.333 396.8 125.867 17.067 4.267 38.4 0 55.467-4.267 123.733-38.4 245.333-78.933 366.933-117.333 34.133-10.667 49.067-34.133 51.2-68.267 0-51.2 2.133-100.267 0-151.467-2.133-55.467-12.8-217.6-12.8-217.6zM108.8 614.4c0-38.4 0-76.8 0-115.2 2.133-138.667 59.733-253.867 166.4-341.333 68.267-55.467 140.8-104.533 211.2-155.733 21.333-14.933 38.4-14.933 59.733 0 66.133 49.067 134.4 98.133 198.4 147.2 104.533 78.933 168.533 181.333 177.067 313.6 6.4 93.867 2.133 189.867 4.267 285.867 0 25.6-12.8 40.533-36.267 46.933-115.2 36.267-230.4 74.667-345.6 110.933-14.933 4.267-34.133 4.267-49.067 0-117.333-36.267-232.533-74.667-349.867-113.067-25.6-8.533-38.4-23.467-36.267-51.2 0-40.533 0-85.333 0-128v0zM516.267 667.733c72.533 0 147.2 0 219.733 0 14.933 0 29.867 2.133 29.867-19.2 0-17.067-10.667-25.6-29.867-25.6-53.333 0-106.667-2.133-162.133 0-27.733 0-34.133-8.533-34.133-34.133 0-110.933 0-219.733 0-330.667 0-10.667-2.133-23.467-10.667-29.867-4.267-4.267-19.2-4.267-25.6 0s-8.533 17.067-8.533 25.6c0 110.933 0 224 0 334.933 0 34.133 0 34.133-34.133 34.133-51.2 0-102.4 0-153.6 0-4.267 0-12.8-2.133-14.933 0-8.533 6.4-21.333 14.933-23.467 25.6-4.267 17.067 10.667 19.2 23.467 19.2 74.667 0 149.333 0 224 0v0z" />
<glyph unicode="&#xe902;" glyph-name="nav_icon_news" d="M324.267 601.6h377.6v-59.733h-377.6v59.733zM324.267 437.333h377.6v-59.733h-377.6v59.733zM512 898.133c61.867 0 121.6-10.667 179.2-34.133 53.333-21.333 102.4-51.2 145.067-89.6 40.533-38.4 74.667-83.2 96-132.267 23.467-51.2 34.133-102.4 34.133-157.867s-12.8-106.667-34.133-157.867c-23.467-49.067-55.467-93.867-96-132.267-42.667-38.4-89.6-68.267-145.067-89.6-57.6-21.333-117.333-34.133-179.2-34.133h-110.933l-10.667-6.4-123.733-57.6c-4.267 25.6-10.667 51.2-14.933 76.8-14.933 59.733-23.467 72.533-25.6 78.933l-6.4 8.533-8.533 6.4c-46.933 36.267-87.467 83.2-113.067 136.533s-40.533 113.067-40.533 172.8c0 55.467 12.8 108.8 34.133 160 23.467 49.067 55.467 93.867 96 132.267 42.667 38.4 89.6 68.267 145.067 89.6 55.467 19.2 117.333 29.867 179.2 29.867zM512 955.733c-283.733 0-512-209.067-512-469.333 0-138.667 66.133-270.933 177.067-354.133 8.533-14.933 27.733-93.867 36.267-157.867 0-8.533 8.533-23.467 19.2-27.733 4.267-4.267 8.533-4.267 19.2-4.267 4.267 0 8.533 0 14.933 4.267l149.333 70.4h96c283.733 0 512 213.333 512 469.333s-228.267 469.333-512 469.333v0z" />
<glyph unicode="&#xe903;" glyph-name="nav_icon_scan" d="M652.8 836.267h217.6c19.2 0 32-10.667 32-32v-185.6c0-19.2 21.333-27.733 42.667-27.733s36.267 14.933 36.267 36.267v179.2c0 59.733-46.933 106.667-106.667 106.667 0 0 0 0 0 0h-219.733c-19.2 0-36.267-14.933-36.267-36.267 0 0 0 0 0 0 0-19.2 12.8-40.533 34.133-40.533zM341.333 59.733h-187.733c-19.2 0-32 10.667-32 32v170.667c0 19.2-21.333 42.667-42.667 42.667s-34.133-14.933-34.133-36.267v-179.2c0-59.733 46.933-106.667 106.667-106.667 0 0 0 0 0 0h179.2c19.2 0 36.267 14.933 36.267 36.267 0 0 0 0 0 0 2.133 19.2-6.4 40.533-25.6 40.533v0zM81.067 590.933c19.2 0 42.667 23.467 42.667 42.667v170.667c0 19.2 10.667 32 32 32h170.667c19.2 0 42.667 21.333 42.667 42.667s-14.933 34.133-36.267 34.133h-179.2c-59.733 0-106.667-46.933-106.667-106.667 0 0 0 0 0 0v-179.2c0-19.2 14.933-36.267 34.133-36.267zM942.933 305.067c-19.2 0-42.667-23.467-42.667-42.667v-170.667c0-19.2-10.667-32-32-32h-215.467c-19.2 0-32-21.333-32-42.667s14.933-36.267 36.267-36.267h213.333c59.733 0 106.667 46.933 106.667 106.667 0 0 0 0 0 0v181.333c0 19.2-14.933 36.267-34.133 36.267zM985.6 480h-947.2c-21.333 0-38.4-17.067-38.4-38.4s17.067-38.4 38.4-38.4h947.2c21.333 0 38.4 17.067 38.4 38.4s-17.067 38.4-38.4 38.4v0z" />
<glyph unicode="&#xe904;" glyph-name="btn_icon_search" d="M1011.2-6.4l-241.067 241.067c68.267 76.8 108.8 177.067 108.8 288 0 241.067-196.267 437.333-437.333 437.333s-439.467-196.267-439.467-437.333c0-241.067 196.267-437.333 437.333-437.333 106.667 0 204.8 38.4 281.6 102.4l241.067-241.067c6.4-6.4 14.933-10.667 23.467-10.667s17.067 4.267 23.467 10.667c14.933 12.8 14.933 34.133 2.133 46.933zM70.4 522.667c0 204.8 166.4 369.067 369.067 369.067s371.2-166.4 371.2-369.067c0-204.8-166.4-369.067-369.067-369.067s-371.2 164.267-371.2 369.067z" />
<glyph unicode="&#xe905;" glyph-name="login_img_camera" d="M512 684.8c-142.933 0-256-113.067-256-256s113.067-256 256-256 256 113.067 256 256-113.067 256-256 256zM512 228.267c-108.8 0-200.533 91.733-200.533 200.533s91.733 200.533 200.533 200.533 200.533-91.733 200.533-200.533-91.733-200.533-200.533-200.533zM804.267 590.933c0-32 25.6-57.6 57.6-57.6s57.6 25.6 57.6 57.6-25.6 57.6-57.6 57.6c-32 0-57.6-25.6-57.6-57.6zM915.2 759.467h-108.8l-25.6 76.8c-6.4 19.2-29.867 32-46.933 32h-441.6c-21.333 0-40.533-14.933-46.933-32l-25.6-76.8h-110.933c-61.867 0-108.8-49.067-108.8-110.933v-512c0-61.867 51.2-108.8 108.8-108.8h804.267c61.867 0 108.8 46.933 108.8 108.8v512c2.133 61.867-44.8 110.933-106.667 110.933zM968.533 136.533c0-29.867-25.6-55.467-55.467-55.467h-804.267c-29.867 0-55.467 25.6-55.467 55.467v512c0 29.867 25.6 55.467 55.467 55.467h149.333l10.667 36.267 25.6 72.533h430.933l25.6-72.533 10.667-36.267h149.333c29.867 0 55.467-25.6 55.467-55.467l2.133-512z" />
<glyph unicode="&#xe906;" glyph-name="search_icon_delete" d="M779.378-58.311h-534.756c-79.644 0-145.067 65.422-145.067 145.067v694.044h824.889v-694.044c0-79.644-65.422-145.067-145.067-145.067zM147.911 732.444v-645.689c0-54.044 42.667-99.556 99.556-99.556h531.911c54.044 0 99.556 42.667 99.556 99.556v645.689h-731.022zM785.067 732.444h-548.978v113.778c0 59.733 48.356 108.089 108.089 108.089h332.8c59.733 0 108.089-48.356 108.089-108.089v-113.778zM284.444 780.8h455.111v65.422c0 34.133-28.444 59.733-59.733 59.733h-335.644c-34.133 0-59.733-28.444-59.733-59.733v-65.422zM1001.244 732.444h-978.489c-11.378 0-22.756 11.378-22.756 25.6v0c0 14.222 11.378 22.756 22.756 22.756h975.644c14.222 0 22.756-11.378 22.756-22.756v0c2.844-14.222-8.533-25.6-19.911-25.6zM284.444 561.778v-381.156c0-14.222 11.378-22.756 22.756-22.756v0c14.222 0 22.756 11.378 22.756 22.756v381.156c0 14.222-11.378 22.756-22.756 22.756v0c-11.378 0-22.756-11.378-22.756-22.756zM489.244 561.778v-381.156c0-14.222 11.378-22.756 22.756-22.756v0c14.222 0 22.756 11.378 22.756 22.756v381.156c0 14.222-11.378 22.756-22.756 22.756v0c-14.222 0-22.756-11.378-22.756-22.756zM696.889 561.778v-381.156c0-14.222 11.378-22.756 22.756-22.756v0c14.222 0 22.756 11.378 22.756 22.756v381.156c0 14.222-11.378 22.756-22.756 22.756v0c-11.378 0-22.756-11.378-22.756-22.756z" />
<glyph unicode="&#xe907;" glyph-name="tabbar_icon_shopc_selected" horiz-adv-x="1025" d="M1017.806 762.847c-6.986 8.752-17.654 14.311-29.62 14.311-0.025 0-0.050 0-0.075 0h-784.55l-32.467 153.792c-3.841 16.75-18.619 29.056-36.271 29.056-0.24 0-0.479-0.002-0.718-0.007l0.036 0.001h-96.761c-0.064 0-0.14 0.001-0.216 0.001-20.259 0-36.709-16.302-36.95-36.504v-0.023c0.241-20.224 16.692-36.526 36.95-36.526 0.076 0 0.152 0 0.228 0.001h66.204l142.685-665.792c3.425-17.275 18.459-30.118 36.492-30.118 0.012 0 0.024 0 0.036 0h563.476c20.173 0 36.526 16.353 36.526 36.526s-16.353 36.526-36.526 36.526h-534.001l-23.496 109.791h608.547c0.045 0 0.099 0 0.152 0 16.993 0 31.337 11.339 35.88 26.863l0.066 0.264 90.353 329.158c0.83 2.877 1.307 6.181 1.307 9.596 0 8.429-2.906 16.18-7.771 22.304l0.057-0.074zM868.926 447.359h-594.877l-54.682 256.32h720.688zM358.849 140.843c-56.415-0.122-102.101-45.883-102.101-102.314 0-56.507 45.808-102.315 102.315-102.315s102.314 45.808 102.315 102.314v0c-0.122 56.533-45.978 102.315-102.528 102.315 0 0 0 0 0 0v0zM358.849-2.483c-22.65 0-41.011 18.361-41.011 41.011s18.361 41.011 41.011 41.011c22.65 0 41.011-18.361 41.011-41.011v0c0-22.65-18.361-41.011-41.011-41.011v0zM769.175 140.843c-56.415-0.122-102.101-45.883-102.101-102.314 0-56.507 45.808-102.315 102.315-102.315s102.314 45.808 102.315 102.314v0c-0.122 56.533-45.978 102.315-102.528 102.315 0 0 0 0 0 0v0zM769.175-2.483c-22.65 0-41.011 18.361-41.011 41.011s18.361 41.011 41.011 41.011c22.65 0 41.011-18.361 41.011-41.011v0c0-22.65-18.361-41.011-41.011-41.011v0z" />
<glyph unicode="&#xe908;" glyph-name="tabbar_icon_choice_default" d="M512 903.111c251.351 0 455.111-203.76 455.111-455.111s-203.76-455.111-455.111-455.111c-251.351 0-455.111 203.76-455.111 455.111v0c0 251.351 203.76 455.111 455.111 455.111v0zM512 960c-282.77 0-512-229.23-512-512s229.23-512 512-512c282.77 0 512 229.23 512 512v0c0 282.77-229.23 512-512 512v0z" />
<glyph unicode="&#xe909;" glyph-name="tabbar_icon_home_default" d="M821.333-64h-162.133c-19.2 0-36.267 17.067-36.267 36.267v187.733c0 59.733-49.067 110.933-110.933 110.933s-110.933-49.067-110.933-110.933v-187.733c0-19.2-17.067-36.267-36.267-36.267h-162.133c-34.133 0-61.867 27.733-61.867 61.867v381.867c0 6.4-4.267 10.667-10.667 10.667h-46.933c-34.133 0-64 21.333-76.8 51.2-12.8 32-4.267 66.133 19.2 89.6l428.8 405.333c32 29.867 81.067 29.867 113.067 0l428.8-405.333c25.6-23.467 32-59.733 19.2-89.6-12.8-32-42.667-51.2-76.8-51.2h-46.933c-6.4 0-10.667-4.267-10.667-10.667v-379.733c2.133-36.267-25.6-64-59.733-64zM676.267-8.533h142.933c4.267 0 8.533 4.267 8.533 8.533v379.733c0 36.267 29.867 66.133 66.133 66.133h46.933c17.067 0 23.467 12.8 25.6 17.067s6.4 19.2-6.4 29.867l-428.8 405.333c-10.667 10.667-27.733 10.667-38.4 0l-428.8-405.333c-12.8-12.8-8.533-25.6-6.4-29.867s8.533-17.067 25.6-17.067h46.933c36.267 0 66.133-29.867 66.133-66.133v-379.733c0-4.267 4.267-8.533 8.533-8.533h142.933v168.533c0 91.733 74.667 164.267 164.267 164.267s164.267-74.667 164.267-164.267v-168.533zM923.733 524.8l-219.733 209.067v55.467c0 25.6 21.333 49.067 49.067 49.067h123.733c25.6 0 49.067-21.333 49.067-49.067v-264.533zM759.467 757.333l110.933-104.533v130.133h-110.933v-25.6zM277.333 503.467c-6.4 0-14.933 2.133-19.2 8.533-10.667 10.667-10.667 27.733 2.133 38.4l215.467 202.667c10.667 10.667 27.733 10.667 38.4-2.133 10.667-10.667 10.667-27.733-2.133-38.4l-215.467-200.533c-6.4-4.267-12.8-8.533-19.2-8.533z" />
<glyph unicode="&#xe90a;" glyph-name="tabbar_icon_home_selected" d="M998.4 531.2l-72.533 68.267v189.867c0 25.6-21.333 49.067-49.067 49.067h-123.733c-21.333 0-38.4-12.8-44.8-32l-138.667 130.133c-32 29.867-81.067 29.867-113.067 0l-428.8-405.333c-25.6-23.467-32-59.733-19.2-89.6 12.8-32 42.667-51.2 76.8-51.2h46.933c6.4 0 10.667-4.267 10.667-10.667v-379.733c0-34.133 27.733-61.867 61.867-61.867h162.133c19.2 0 36.267 17.067 36.267 36.267v187.733c0 59.733 49.067 110.933 110.933 110.933s110.933-49.067 110.933-110.933v-187.733c0-19.2 17.067-36.267 36.267-36.267h162.133c34.133 0 61.867 27.733 61.867 61.867v379.733c0 6.4 4.267 10.667 10.667 10.667h46.933c34.133 0 64 21.333 76.8 51.2 10.667 32 2.133 66.133-21.333 89.6zM509.867 714.667l-215.467-202.667c-4.267-4.267-12.8-8.533-19.2-8.533s-14.933 2.133-19.2 8.533c-10.667 10.667-10.667 27.733 2.133 38.4l215.467 202.667c10.667 10.667 27.733 10.667 38.4-2.133 10.667-8.533 8.533-25.6-2.133-36.267z" />
<glyph unicode="&#xe90b;" glyph-name="tabbar_icon_library_default" d="M836.267-64h-576c-57.6 0-104.533 40.533-117.333 93.867h-4.267v714.667h55.467v-689.067c0-36.267 29.867-66.133 66.133-66.133h571.733v727.467h-85.333v55.467h85.333c29.867 0 53.333-23.467 53.333-53.333v-736c0-25.6-21.333-46.933-49.067-46.933zM305.067 160c-14.933 0-27.733 12.8-27.733 27.733v345.6c0 14.933 12.8 27.733 27.733 27.733s27.733-12.8 27.733-27.733v-345.6c0-14.933-12.8-27.733-27.733-27.733zM774.4 716.8h-514.133c-66.133 0-121.6 53.333-121.6 121.6s53.333 121.6 121.6 121.6h467.2c27.733 0 49.067-21.333 49.067-49.067v-194.133zM260.267 904.533c-36.267 0-66.133-29.867-66.133-66.133s29.867-66.133 66.133-66.133h460.8v132.267h-460.8zM836.267-64h-576c-57.6 0-104.533 40.533-117.333 93.867h-4.267v812.8h55.467v-785.067c0-36.267 29.867-66.133 66.133-66.133h571.733v725.333h-85.333v55.467h85.333c29.867 0 53.333-23.467 53.333-53.333v-736c0-25.6-21.333-46.933-49.067-46.933zM757.333 522.667h-102.4c-6.4 0-10.667 4.267-10.667 10.667v102.4c0 6.4 4.267 10.667 10.667 10.667h102.4c6.4 0 10.667-4.267 10.667-10.667v-102.4c0-6.4-4.267-10.667-10.667-10.667zM727.467 800h-539.733c-8.533 0-12.8 6.4-12.8 12.8v0c0 8.533 6.4 12.8 12.8 12.8h539.733c8.533 0 12.8-6.4 12.8-12.8v0c0-6.4-6.4-12.8-12.8-12.8zM727.467 849.067h-539.733c-8.533 0-12.8 6.4-12.8 12.8v0c0 8.533 6.4 12.8 12.8 12.8h539.733c8.533 0 12.8-6.4 12.8-12.8v0c0-6.4-6.4-12.8-12.8-12.8z" />
<glyph unicode="&#xe90c;" glyph-name="tabbar_icon_library_selected" d="M832 772.267h-57.6v138.667c0 27.733-21.333 49.067-49.067 49.067h-465.067c-66.133 0-119.467-53.333-121.6-117.333v0-812.8h2.133c12.8-53.333 59.733-93.867 117.333-93.867h578.133c27.733 0 49.067 21.333 49.067 49.067v736c0 27.733-23.467 51.2-53.333 51.2zM260.267 904.533h460.8v-27.733h-514.133c10.667 17.067 29.867 27.733 53.333 27.733zM194.133 838.4c0 4.267 0 6.4 0 10.667h524.8v-21.333h-524.8c0 4.267 0 8.533 0 10.667zM206.933 800h514.133v-27.733h-460.8c-23.467 0-42.667 12.8-53.333 27.733zM332.8 187.733c0-14.933-12.8-27.733-27.733-27.733s-27.733 12.8-27.733 27.733v345.6c0 14.933 12.8 27.733 27.733 27.733s27.733-12.8 27.733-27.733v-345.6zM761.6 541.867c0-10.667-8.533-21.333-21.333-21.333h-83.2c-10.667 0-21.333 8.533-21.333 21.333v83.2c0 10.667 8.533 21.333 21.333 21.333h83.2c10.667 0 21.333-8.533 21.333-21.333v-83.2z" />
<glyph unicode="&#xe90d;" glyph-name="tabbar_icon_mall_default" d="M834.133 356.267c-46.933 0-89.6 17.067-125.867 49.067-12.8 12.8-25.6 27.733-36.267 42.667-34.133-55.467-93.867-91.733-160-91.733-68.267 0-128 36.267-160 91.733-34.133-55.467-93.867-91.733-160-91.733-106.667 0-192 89.6-192 196.267v64c0 17.067 4.267 34.133 10.667 51.2l104.533 226.133c19.2 40.533 57.6 66.133 100.267 66.133h590.933c42.667 0 83.2-25.6 100.267-66.133l102.4-221.867c8.533-19.2 12.8-40.533 12.8-61.867v-53.333c0-102.4-74.667-189.867-170.667-198.4-4.267 0-10.667-2.133-17.067-2.133zM352 582.4c17.067 0 29.867-12.8 29.867-29.867 0-74.667 59.733-136.533 130.133-136.533s130.133 61.867 130.133 136.533c0 17.067 12.8 29.867 29.867 29.867s29.867-12.8 29.867-29.867c0-40.533 17.067-76.8 44.8-102.4s61.867-36.267 98.133-32c66.133 6.4 117.333 68.267 117.333 140.8v53.333c0 12.8-2.133 25.6-8.533 36.267l-98.133 221.867c-8.533 19.2-27.733 32-46.933 32h-593.067c-19.2 0-38.4-12.8-46.933-32v0l-102.4-228.267c-4.267-8.533-6.4-17.067-6.4-25.6v-64c0-74.667 59.733-136.533 130.133-136.533 72.533 0 130.133 61.867 130.133 136.533 2.133 17.067 14.933 29.867 32 29.867zM142.933 881.067v0 0zM889.6-64h-260.267c-23.467 0-42.667 19.2-42.667 42.667v206.933c0 0 0 2.133 0 2.133h-155.733c0 0 0 0 0 0v-209.067c0-23.467-19.2-42.667-42.667-42.667h-253.867c-34.133 0-61.867 27.733-61.867 64v424.533h59.733v-424.533c0-2.133 2.133-4.267 4.267-4.267h236.8v192c0 34.133 25.6 59.733 59.733 59.733h155.733c32 0 59.733-27.733 59.733-59.733v-192h245.333c2.133 0 4.267 2.133 4.267 4.267v424.533h59.733v-424.533c-4.267-36.267-32-64-68.267-64zM740.267 659.2h-450.133c-17.067 0-29.867 12.8-29.867 29.867s12.8 29.867 29.867 29.867h450.133c17.067 0 29.867-12.8 29.867-29.867s-12.8-29.867-29.867-29.867z" />
<glyph unicode="&#xe90e;" glyph-name="tabbar_icon_mall_selected" d="M1011.2 672l-102.4 221.867c-19.2 40.533-57.6 66.133-100.267 66.133h-593.067c-42.667 0-83.2-25.6-100.267-66.133v0l-104.533-226.133c-6.4-17.067-10.667-34.133-10.667-51.2v-64c0-61.867 27.733-117.333 70.4-151.467v-401.067c0-34.133 27.733-64 61.867-64h253.867c23.467 0 42.667 19.2 42.667 42.667v206.933c0 0 0 0 0 0h155.733c0 0 0 0 0-2.133v-204.8c0-23.467 19.2-42.667 42.667-42.667h260.267c34.133 0 61.867 27.733 61.867 64v403.2c42.667 36.267 70.4 93.867 70.4 155.733v53.333c4.267 19.2 0 40.533-8.533 59.733zM740.267 659.2h-450.133c-17.067 0-29.867 12.8-29.867 29.867s12.8 29.867 29.867 29.867h450.133c17.067 0 29.867-12.8 29.867-29.867s-12.8-29.867-29.867-29.867z" />
<glyph unicode="&#xe90f;" glyph-name="tabbar_icon_personal_default" d="M512 371.2c-162.133 0-294.4 132.267-294.4 294.4s132.267 294.4 294.4 294.4 294.4-132.267 294.4-294.4c0-162.133-132.267-294.4-294.4-294.4zM512 902.4c-130.133 0-236.8-106.667-236.8-236.8s106.667-236.8 236.8-236.8 236.8 106.667 236.8 236.8-106.667 236.8-236.8 236.8zM904.533-64h-785.067c-19.2 0-38.4 8.533-51.2 23.467s-19.2 34.133-17.067 53.333c23.467 236.8 221.867 416 460.8 416s437.333-179.2 460.8-416c2.133-19.2-4.267-38.4-17.067-53.333s-32-23.467-51.2-23.467zM512 371.2c-209.067 0-384-157.867-405.333-364.8 0-4.267 2.133-6.4 2.133-8.533 2.133-2.133 4.267-4.267 8.533-4.267h787.2c4.267 0 6.4 2.133 8.533 4.267s4.267 4.267 2.133 8.533c-19.2 206.933-194.133 364.8-403.2 364.8zM789.333 57.6c-10.667 0-23.467 6.4-27.733 19.2-27.733 74.667-85.333 132.267-160 157.867-14.933 4.267-23.467 21.333-17.067 36.267 4.267 14.933 21.333 23.467 36.267 17.067 89.6-32 162.133-102.4 194.133-192 6.4-14.933-2.133-32-17.067-36.267-2.133-2.133-6.4-2.133-8.533-2.133z" />
<glyph unicode="&#xe910;" glyph-name="tabbar_icon_personal_selected" d="M650.667 407.467c91.733 49.067 155.733 147.2 155.733 258.133 0 162.133-132.267 294.4-294.4 294.4s-294.4-132.267-294.4-294.4c0-110.933 61.867-209.067 155.733-258.133-172.8-55.467-302.933-206.933-322.133-396.8-2.133-19.2 4.267-38.4 17.067-53.333 12.8-12.8 32-21.333 51.2-21.333h787.2c19.2 0 38.4 8.533 51.2 23.467s19.2 34.133 17.067 53.333c-21.333 187.733-151.467 339.2-324.267 394.667zM800 57.6c-4.267-2.133-6.4-2.133-10.667-2.133-10.667 0-23.467 6.4-27.733 19.2-27.733 74.667-85.333 132.267-160 157.867-14.933 4.267-23.467 21.333-17.067 36.267 4.267 14.933 21.333 23.467 36.267 17.067 89.6-32 162.133-102.4 194.133-192 6.4-12.8-2.133-29.867-14.933-36.267z" />
<glyph unicode="&#xe911;" d="M983.893 647.111c-79.629 185.665-260.85 313.352-471.893 313.352-282.77 0-512-229.23-512-512s229.23-512 512-512c282.607 0 511.736 228.966 512 511.511v0.026c0 0.137 0 0.3 0 0.463 0 71.726-14.749 140.008-41.38 201.977l1.273-3.33zM798.72 601.316l-320.853-394.809c-6.135-7.622-15.217-12.656-25.489-13.363l-0.111-0.006h-2.276c-0.187-0.004-0.407-0.006-0.628-0.006-9.734 0-18.555 3.912-24.976 10.249l0.004-0.004-190.009 186.027c-6.371 6.633-10.295 15.658-10.295 25.6s3.923 18.967 10.306 25.612l-0.012-0.012c6.477 6.713 15.552 10.881 25.6 10.881s19.123-4.168 25.59-10.87l0.010-0.011 163.271-158.72 293.547 366.649c6.57 8.27 16.625 13.526 27.909 13.526 8.929 0 17.090-3.291 23.334-8.727l-0.043 0.037c8.364-6.833 13.661-17.148 13.661-28.7 0-9.016-3.227-17.279-8.589-23.696l0.048 0.059z" />
<glyph unicode="&#xe913;" glyph-name="tabbar_icon_logistics_selected" d="M951.751 931.84h-597.333c-39.144-0.319-70.792-31.967-71.111-71.081v-116.084l-261.12-131.129c-13.089-6.627-21.905-19.978-21.905-35.388 0-0.159 0.001-0.318 0.003-0.476v0.024-413.867c-0.091-1.011-0.142-2.187-0.142-3.375 0-22.15 17.956-40.107 40.107-40.107s40.107 17.956 40.107 40.107c0 1.188-0.052 2.364-0.153 3.525l0.011-0.151v387.413l261.404 131.129c12.837 7.044 21.543 20.214 22.184 35.47l0.003 0.086v131.129h580.267v-678.116c-0.091-1.011-0.142-2.187-0.142-3.375 0-22.15 17.956-40.107 40.107-40.107s40.107 17.956 40.107 40.107c0 1.188-0.052 2.364-0.153 3.525l0.011-0.151v689.209c0.010 0.432 0.015 0.941 0.015 1.451 0 38.802-31.455 70.258-70.258 70.258-0.705 0-1.408-0.010-2.109-0.031l0.103 0.002zM166.969 375.467h155.591c0.085-0.001 0.185-0.001 0.285-0.001 21.993 0 39.822 17.829 39.822 39.822 0 0.1 0 0.201-0.001 0.301v-0.015 157.867c0.091 1.011 0.142 2.187 0.142 3.375 0 22.15-17.956 40.107-40.107 40.107s-40.107-17.956-40.107-40.107c0-1.188 0.052-2.364 0.153-3.525l-0.011 0.151v-117.76h-115.769c-20.65-1.796-36.732-19.002-36.732-39.964s16.082-38.169 36.581-39.954l0.151-0.011zM764.302 299.804c-77.647-1.191-142.625-54.055-162.14-125.666l-0.278-1.196h-186.027c-18.514 73.557-84.074 127.146-162.15 127.146-92.214 0-166.969-74.755-166.969-166.969 0-92.12 74.602-166.817 166.687-166.969h0.015c77.647 1.191 142.625 54.055 162.14 125.666l0.278 1.196h186.88c18.514-73.557 84.074-127.146 162.15-127.146 92.214 0 166.969 74.755 166.969 166.969 0 92.12-74.602 166.817-166.687 166.969h-0.015zM849.636 133.12c0-47.128-38.205-85.333-85.333-85.333s-85.333 38.205-85.333 85.333c0 47.128 38.205 85.333 85.333 85.333v0c47.128 0 85.333-38.205 85.333-85.333v0zM340.48 133.12c0-47.128-38.205-85.333-85.333-85.333s-85.333 38.205-85.333 85.333c0 47.128 38.205 85.333 85.333 85.333v0c47.128 0 85.333-38.205 85.333-85.333v0z" />
<glyph unicode="&#xe914;" glyph-name="tabbar_icon_mechanism_default" d="M230.4 431.787h218.88c17.437 0 31.573-14.136 31.573-31.573v-0.64c0-17.437-14.136-31.573-31.573-31.573h-218.88c-17.437 0-31.573 14.136-31.573 31.573v0.64c0 17.437 14.136 31.573 31.573 31.573zM230.4 598.4h218.88c17.437 0 31.573-14.136 31.573-31.573v-0.64c0-17.437-14.136-31.573-31.573-31.573h-218.88c-17.437 0-31.573 14.136-31.573 31.573v0.64c0 17.437 14.136 31.573 31.573 31.573zM230.4 765.013h218.88c17.437 0 31.573-14.136 31.573-31.573v-0.64c0-17.437-14.136-31.573-31.573-31.573h-218.88c-17.437 0-31.573 14.136-31.573 31.573v0.64c0 17.437 14.136 31.573 31.573 31.573zM927.787 729.6h-273.92v148.267c0 0.064 0 0.139 0 0.214 0 45.093-36.434 81.677-81.471 81.919h-469.356c-45.151-0.121-81.707-36.751-81.707-81.92 0-0.075 0-0.15 0-0.225v0.012-859.733c0-0.063 0-0.139 0-0.214 0-45.168 36.555-81.799 81.695-81.92h116.919c24.179 0.121 43.733 19.75 43.733 43.946 0 0 0 0 0 0v0 189.44h148.053v-189.44c0 0 0 0 0-0.001 0-24.196 19.554-43.825 43.722-43.946h472.332c41.407 0.242 74.88 33.865 74.88 75.305 0 0 0 0.001 0 0.001v0 642.987c0 0 0 0.001 0 0.001 0 41.441-33.473 75.063-74.857 75.305h-0.023zM597.333-7.253h-129.28v184.533c0 0.064 0 0.139 0 0.214 0 26.906-21.751 48.732-48.629 48.853h-163.424c-26.889-0.121-48.64-21.947-48.64-48.853 0-0.075 0-0.15 0.001-0.225v0.012-184.533h-104.32c-13.929 0.121-25.173 11.44-25.173 25.386 0 0 0 0.001 0 0.001v0 859.733c0 0 0 0.001 0 0.001 0 13.946 11.245 25.265 25.162 25.386h469.344c13.836-0.24 24.96-11.512 24.96-25.383 0-0.001 0-0.003 0-0.004v0zM946.133 11.307c-0.119-10.202-8.358-18.441-18.549-18.56h-272.438v680.107h272.64c10.202-0.119 18.441-8.358 18.56-18.549v-0.011z" />
<glyph unicode="&#xe915;" glyph-name="tabbar_icon_mechanism_selected" d="M927.787 729.6h-273.92v148.267c0 0.064 0 0.139 0 0.214 0 45.093-36.434 81.677-81.471 81.919h-469.356c-45.151-0.121-81.707-36.751-81.707-81.92 0-0.075 0-0.15 0-0.225v0.012-859.733c0-0.063 0-0.139 0-0.214 0-45.168 36.555-81.799 81.695-81.92h116.919c24.179 0.121 43.733 19.75 43.733 43.946 0 0 0 0 0 0v0 189.44h148.053v-189.44c0 0 0 0 0-0.001 0-24.196 19.554-43.825 43.722-43.946h472.332c41.407 0.242 74.88 33.865 74.88 75.305 0 0 0 0.001 0 0.001v0 642.987c0 0 0 0.001 0 0.001 0 41.441-33.473 75.063-74.857 75.305h-0.023zM449.28 366.933h-218.667c-17.673 0-32 14.327-32 32s14.327 32 32 32v0h218.667c17.673 0 32-14.327 32-32s-14.327-32-32-32v0zM449.28 533.547h-218.667c-17.673 0-32 14.327-32 32s14.327 32 32 32v0h218.667c17.673 0 32-14.327 32-32s-14.327-32-32-32v0zM449.28 700.16h-218.667c-17.673 0-32 14.327-32 32s14.327 32 32 32v0h218.667c17.673 0 32-14.327 32-32s-14.327-32-32-32v0z" />
<glyph unicode="&#xe916;" glyph-name="tabbar_icon_more_selected" d="M261.12-64c-14.311 0.006-27.132 6.377-35.788 16.436l-0.052 0.062c-7.546 8.566-12.152 19.881-12.152 32.271 0 14.52 6.325 27.562 16.371 36.523l0.048 0.042 479.573 426.667-479.573 426.667c-10.094 9.002-16.419 22.045-16.419 36.565 0 12.39 4.606 23.705 12.199 32.325l-0.047-0.054c8.714 10.174 21.573 16.58 35.929 16.58 12.118 0 23.169-4.565 31.529-12.068l-0.044 0.039 493.796-440.32c15.167-15.395 24.533-36.541 24.533-59.876s-9.366-44.481-24.543-59.886l-2.266-2.266-491.52-437.76c-8.303-7.415-19.318-11.947-31.393-11.947-0.064 0-0.127 0-0.191 0h0.010z" />
<glyph unicode="&#xe918;" horiz-adv-x="1025" d="M933.345 157.22c4.956-5.122 8.010-12.111 8.010-19.813s-3.054-14.691-8.018-19.821l-16.241-16.241c-49.354-50.072-117.921-81.092-193.732-81.092-25.398 0-49.983 3.481-73.303 9.993l1.913-0.456h-1.996c-268.918 78.879-476.468 286.241-554.164 549.312l-1.453 5.735v1.996c-6.179 21.571-9.733 46.346-9.733 71.951 0 75.477 30.876 143.743 80.686 192.855l16.28 16.28c5.122 4.956 12.111 8.010 19.813 8.010s14.691-3.054 19.821-8.018l-0.008 0.008 158.218-157.933c4.956-5.122 8.010-12.111 8.010-19.813s-3.054-14.691-8.018-19.821l0.008 0.008-91.795-91.51c-15.224-15.177-24.643-36.168-24.643-59.36 0-14.829 3.851-28.758 10.607-40.842l-0.218 0.424c63.849-114.435 155.938-206.341 267.053-268.188l3.486-1.781c11.618-6.293 25.435-9.993 40.117-9.993 23.215 0 44.269 9.25 59.679 24.264l91.777 91.777c5.122 4.956 12.111 8.010 19.813 8.010s14.691-3.054 19.821-8.018l-0.008 0.008 158.218-157.933zM992.641 216.517l-2.851 3.136-155.082 154.797c-20.263 20.208-48.227 32.703-79.109 32.703s-58.846-12.495-79.112-32.705l-91.792-91.792c-100.592 55.825-181.425 136.475-235.91 233.864l-1.56 3.036 91.795 91.795c20.26 20.186 32.796 48.112 32.796 78.967s-12.536 58.781-32.793 78.963l-0.003 0.003-158.218 157.933c-20.263 20.208-48.227 32.703-79.109 32.703s-58.846-12.495-79.112-32.705l-16.246-16.246c-65.392-64.415-105.905-153.928-105.905-252.903 0-33.462 4.631-65.843 13.287-96.537l-0.602 2.5v-2.281c87.754-296.605 317.235-525.239 608.019-610.194l6.324-1.583h2.281c28.357-8.122 60.926-12.793 94.586-12.793 98.897 0 188.377 40.319 252.898 105.417l16.275 16.275c20.191 20.218 32.678 48.134 32.678 78.967s-12.487 58.749-32.679 78.968l0.001-0.001z" />
<glyph unicode="&#xe919;" glyph-name="tabbar_icon_book_selected" horiz-adv-x="853" d="M804.267 960h-754.773c0 0 0 0 0 0-27.334 0-49.493-22.159-49.493-49.493 0-0.075 0-0.15 0.001-0.225v0.012-924.587c0-0.063 0-0.138 0-0.213 0-27.334 22.159-49.493 49.493-49.493 0 0 0 0 0 0h754.347c0 0 0 0 0 0 27.334 0 49.493 22.159 49.493 49.493 0 0.075 0 0.15-0.001 0.225v-0.012 924.587c0.001 0.127 0.002 0.277 0.002 0.427 0 27.142-21.943 49.159-49.057 49.28h-0.011zM798.293 24.107c0-13.44 0-24.96-4.907-29.653-2.824-2.447-6.534-3.938-10.592-3.938-0.628 0-1.247 0.036-1.856 0.105l0.074-0.007h-593.067v914.347h299.733v-263.68c-0.147-0.577-0.231-1.238-0.231-1.92s0.084-1.343 0.243-1.976l-0.012 0.056c0.225-4.415 2.054-8.364 4.911-11.311l-0.004 0.005c2.559-3.417 6.047-6.010 10.090-7.421l0.15-0.045c4.482-2.071 9.727-3.279 15.253-3.279s10.771 1.208 15.484 3.374l-0.231-0.095 84.053 70.187 85.333-70.187c5.46-4.134 12.365-6.622 19.852-6.622 1.349 0 2.679 0.081 3.986 0.238l-0.158-0.015c5.045 1.004 9.26 3.962 11.903 8.035l0.043 0.071c3.993 6.373 6.362 14.117 6.362 22.415 0 2.026-0.141 4.019-0.414 5.97l0.026-0.225v256h38.827c0.534 0.062 1.154 0.098 1.781 0.098 4.058 0 7.768-1.491 10.612-3.955l-0.020 0.017c4.907-4.907 4.907-16.853 4.907-29.653zM543.787 700.587v204.373h144.213v-202.027l-65.707 54.4-4.907 6.4-4.267-4.267zM55.040 871.253c0 13.44 0 24.96 4.907 29.653 2.824 2.447 6.534 3.938 10.592 3.938 0.628 0 1.247-0.036 1.856-0.105l-0.074 0.007h61.44v-913.707h-61.653c-0.534-0.062-1.154-0.098-1.781-0.098-4.058 0-7.768 1.491-10.612 3.955l0.020-0.017c-4.907 4.907-4.907 16.853-4.907 29.653z" />
<glyph unicode="&#xe91a;" glyph-name="tabbar_icon_address_selected" horiz-adv-x="825" d="M412.444-64c-0.022 0-0.049 0-0.075 0-20.748 0-39.681 7.767-54.052 20.552l0.082-0.072c-164.978 147.342-358.4 389.689-358.4 587.947 0 227.787 184.658 412.444 412.444 412.444s412.444-184.658 412.444-412.444v0c0-197.404-180.338-438.329-359.253-589.369-14.004-11.856-32.273-19.064-52.225-19.064-0.34 0-0.679 0.002-1.018 0.006h0.052zM412.444 884.622c-186.647-0.804-337.643-152.296-337.643-339.055 0-0.801 0.003-1.601 0.008-2.401l-0.001 0.123c0-185.173 209.92-421.262 333.938-531.342 1.181-1.004 2.724-1.615 4.409-1.615s3.228 0.611 4.419 1.623l-0.010-0.008c160.142 135.396 332.516 359.538 332.516 531.627 0.004 0.592 0.006 1.293 0.006 1.994 0 186.758-150.995 338.25-337.564 339.055h-0.077zM412.444 346.453c-0.761-0.010-1.66-0.016-2.56-0.016-109.966 0-199.111 89.145-199.111 199.111s89.145 199.111 199.111 199.111c109.96 0 199.102-89.136 199.111-199.094v-0.001c0.003-0.424 0.005-0.924 0.005-1.425 0-108.782-87.864-197.043-196.495-197.685h-0.061zM412.444 667.022c-0.254 0.002-0.553 0.003-0.853 0.003-67.708 0-122.596-54.888-122.596-122.596s54.888-122.596 122.596-122.596c67.707 0 122.594 54.886 122.596 122.592v0c0 0.085 0 0.185 0 0.286 0 67.351-54.437 121.987-121.712 122.31h-0.031z" />
<glyph unicode="&#xe91b;" glyph-name="tabbar_icon_del_selected" d="M512 960c-282.77 0-512-229.23-512-512s229.23-512 512-512c282.77 0 512 229.23 512 512v0c0 282.77-229.23 512-512 512v0zM725.333 234.667c-6.405-6.862-15.503-11.139-25.6-11.139s-19.195 4.277-25.581 11.119l-0.019 0.020-162.133 162.133-162.133-162.133c-6.552-6.552-15.603-10.604-25.6-10.604-19.995 0-36.204 16.209-36.204 36.204 0 9.997 4.052 19.048 10.604 25.6l162.133 162.133-162.133 162.133c-6.552 6.552-10.604 15.603-10.604 25.6 0 19.995 16.209 36.204 36.204 36.204 9.997 0 19.048-4.052 25.6-10.604l162.133-162.133 162.133 162.133c6.552 6.552 15.603 10.604 25.6 10.604 19.995 0 36.204-16.209 36.204-36.204 0-9.997-4.052-19.048-10.604-25.6l-162.133-162.133 162.133-162.133c8.737-5.316 14.483-14.787 14.483-25.6s-5.746-20.284-14.351-25.525l-0.132-0.075z" />
</font>
</defs>
</svg>
